<svg width="239" height="70" viewBox="0 0 239 70" fill="none" xmlns="http://www.w3.org/2000/svg">
<g id="kinokz-logo-rgb-color 1">
<g id="g8">
<g id="g10">
<path id="path12" d="M171.289 42.9845C169.447 42.9845 167.953 44.4807 167.953 46.3261C167.953 48.1712 169.447 49.6674 171.289 49.6674C173.132 49.6674 174.626 48.1712 174.626 46.3261C174.626 44.4807 173.132 42.9845 171.289 42.9845Z" fill="#100F0D"/>
<path id="path14" d="M117.398 20.3603C115.555 20.3603 114.062 21.8565 114.062 23.7017C114.062 25.5474 115.555 27.0436 117.398 27.0436C119.241 27.0436 120.734 25.5474 120.734 23.7017C120.734 21.8565 119.241 20.3603 117.398 20.3603Z" fill="#100F0D"/>
<path id="path16" d="M114.724 49.6674H120.071V29.3349H114.724V49.6674Z" fill="#100F0D"/>
<path id="path18" d="M135.321 28.943C134.104 28.943 132.977 29.1934 131.941 29.6941C130.905 30.1948 129.894 31.0257 128.908 32.1867V29.3349H123.562V49.6674H128.908V36.149C129.778 35.0166 130.575 34.2078 131.3 33.7215C132.024 33.2353 132.8 32.9922 133.626 32.9922C134.712 32.9922 135.571 33.3768 136.201 34.1459C136.832 34.9154 137.147 35.9602 137.147 37.281V49.6674H142.472V36.7365C142.472 34.3999 141.823 32.517 140.527 31.0872C139.23 29.658 137.495 28.943 135.321 28.943Z" fill="#100F0D"/>
<path id="path20" d="M160.118 44.3557C159.118 45.5172 157.749 46.0972 156.01 46.0972C154.343 46.0972 153.013 45.4914 152.021 44.2797C151.029 43.0682 150.532 41.4464 150.532 39.4141C150.532 37.4551 151.039 35.8805 152.054 34.6901C153.068 33.5002 154.387 32.9051 156.01 32.9051C157.734 32.9051 159.1 33.4677 160.107 34.5922C161.114 35.717 161.618 37.3101 161.618 39.3708C161.618 41.5334 161.118 43.1949 160.118 44.3557ZM161.813 30.271C160.088 29.386 158.169 28.943 156.053 28.943C153.966 28.943 152.068 29.3822 150.358 30.2599C148.648 31.1385 147.315 32.3718 146.359 33.9608C145.403 35.5501 144.924 37.368 144.924 39.4141C144.924 41.5188 145.377 43.3618 146.283 44.9438C147.188 46.5257 148.511 47.7733 150.25 48.6881C151.989 49.6022 153.923 50.0594 156.053 50.0594C158.169 50.0594 160.107 49.6022 161.868 48.6881C163.628 47.7733 164.961 46.5257 165.867 44.9438C166.772 43.3618 167.226 41.5188 167.226 39.4141C167.226 37.3974 166.754 35.5902 165.813 33.9935C164.87 32.3972 163.537 31.1564 161.813 30.271Z" fill="#100F0D"/>
<path id="path22" d="M207.191 45.6618L217.755 29.3349H199.105V33.3838H208.886L198.349 49.5935L189.156 39.3708L197.394 29.3349H191.112L182.982 39.0854V20.3605H177.635V49.6674H182.982V39.6464L191.634 49.6674H198.301H217.798V45.6618H207.191Z" fill="#100F0D"/>
<path id="path24" d="M112.294 29.3349H106.012L97.8816 39.0854V20.3605H92.5348V49.6674H97.8816V39.6464L106.534 49.6674H113.315L104.056 39.3708L112.294 29.3349Z" fill="#100F0D"/>
<path id="path26" d="M63.273 20.3605C56.455 20.3605 50.7265 25.0307 49.1028 31.3512C47.4788 25.0307 41.7501 20.3605 34.9325 20.3605C26.8521 20.3605 20.3015 26.9214 20.3015 35.0139C20.3015 43.107 26.8521 49.6674 34.9325 49.6674C41.7501 49.6674 47.4788 44.9971 49.1028 38.6768C50.7265 44.9971 56.455 49.6674 63.273 49.6674C71.3535 49.6674 77.9039 43.107 77.9039 35.0139C77.9039 26.9214 71.3535 20.3605 63.273 20.3605Z" fill="#00F000"/>
</g>
</g>
</g>
</svg>
